<svg xmlns="http://www.w3.org/2000/svg" width="512" height="512" viewBox="0 0 512 512" fill="none">
  <rect width="512" height="512" rx="96" fill="#f43f5e"/>
  <path d="M256 128C186.64 128 128 186.64 128 256C128 325.36 186.64 384 256 384C325.36 384 384 325.36 384 256C384 186.64 325.36 128 256 128ZM256 160C273.68 160 288 174.32 288 192C288 209.68 273.68 224 256 224C238.32 224 224 209.68 224 192C224 174.32 238.32 160 256 160ZM256 352C224 352 196 336 180 312C180.4 284 236 268 256 268C276 268 331.6 284 332 312C316 336 288 352 256 352Z" fill="white"/>
  <path d="M320 224C337.673 224 352 209.673 352 192C352 174.327 337.673 160 320 160C302.327 160 288 174.327 288 192C288 209.673 302.327 224 320 224Z" fill="#FFD700"/>
  <path d="M192 224C209.673 224 224 209.673 224 192C224 174.327 209.673 160 192 160C174.327 160 160 174.327 160 192C160 209.673 174.327 224 192 224Z" fill="#FFD700"/>
  <path d="M256 352C288 352 316 336 332 312C331.6 284 276 268 256 268C236 268 180.4 284 180 312C196 336 224 352 256 352Z" fill="#FFD700"/>
</svg>