<svg xmlns="http://www.w3.org/2000/svg" width="192" height="192" viewBox="0 0 192 192" fill="none">
  <rect width="192" height="192" rx="32" fill="#f43f5e"/>
  <path d="M96 48C69.49 48 48 69.49 48 96C48 122.51 69.49 144 96 144C122.51 144 144 122.51 144 96C144 69.49 122.51 48 96 48ZM96 60C102.63 60 108 65.37 108 72C108 78.63 102.63 84 96 84C89.37 84 84 78.63 84 72C84 65.37 89.37 60 96 60ZM96 132C84 132 73.5 126 67.5 117C67.65 106.5 88.5 100.5 96 100.5C103.5 100.5 124.35 106.5 124.5 117C118.5 126 108 132 96 132Z" fill="white"/>
  <path d="M120 84C126.627 84 132 78.6274 132 72C132 65.3726 126.627 60 120 60C113.373 60 108 65.3726 108 72C108 78.6274 113.373 84 120 84Z" fill="#FFD700"/>
  <path d="M72 84C78.6274 84 84 78.6274 84 72C84 65.3726 78.6274 60 72 60C65.3726 60 60 65.3726 60 72C60 78.6274 65.3726 84 72 84Z" fill="#FFD700"/>
  <path d="M96 132C108 132 118.5 126 124.5 117C124.35 106.5 103.5 100.5 96 100.5C88.5 100.5 67.65 106.5 67.5 117C73.5 126 84 132 96 132Z" fill="#FFD700"/>
</svg>